<mxfile host="app.diagrams.net" modified="2020-11-18T14:25:32.752Z" agent="5.0 (Macintosh; Intel Mac OS X 10_15_6) AppleWebKit/537.36 (KHTML, like Gecko) Chrome/86.0.4240.77 YaBrowser/20.11.0.918 Yowser/2.5 Safari/537.36" etag="zFHcfluLtFKxvWba2Wcv" version="13.9.9" type="github">
  <diagram id="IPUWkhccM99kv6UNxn6Q" name="Page-1">
    <mxGraphModel dx="1138" dy="714" grid="1" gridSize="10" guides="1" tooltips="1" connect="1" arrows="1" fold="1" page="1" pageScale="1" pageWidth="827" pageHeight="1169" math="0" shadow="0">
      <root>
        <mxCell id="0" />
        <mxCell id="1" parent="0" />
        <mxCell id="YI6oHCcoEkGc4NHFhSed-1" value="" style="rounded=0;whiteSpace=wrap;html=1;" vertex="1" parent="1">
          <mxGeometry x="350" y="340" width="120" height="60" as="geometry" />
        </mxCell>
        <mxCell id="YI6oHCcoEkGc4NHFhSed-3" value="" style="edgeStyle=orthogonalEdgeStyle;rounded=0;orthogonalLoop=1;jettySize=auto;html=1;" edge="1" parent="1" source="YI6oHCcoEkGc4NHFhSed-2" target="YI6oHCcoEkGc4NHFhSed-1">
          <mxGeometry relative="1" as="geometry" />
        </mxCell>
        <mxCell id="YI6oHCcoEkGc4NHFhSed-2" value="" style="rounded=1;whiteSpace=wrap;html=1;" vertex="1" parent="1">
          <mxGeometry x="350" y="220" width="120" height="60" as="geometry" />
        </mxCell>
      </root>
    </mxGraphModel>
  </diagram>
</mxfile>
